<?xml version="1.0" standalone="no"?>
<!DOCTYPE svg PUBLIC "-//W3C//DTD SVG 1.1//EN" "http://www.w3.org/Graphics/SVG/1.1/DTD/svg11.dtd" >
<svg xmlns="http://www.w3.org/2000/svg">
<metadata></metadata>
<defs>
<font id="jimmy_flashcardregular" horiz-adv-x="992" >
<font-face units-per-em="2048" ascent="1638" descent="-410" />
<missing-glyph horiz-adv-x="634" />
<glyph horiz-adv-x="2048" />
<glyph horiz-adv-x="2048" />
<glyph unicode="&#xd;" horiz-adv-x="550" />
<glyph unicode=" "  horiz-adv-x="634" />
<glyph unicode="&#x09;" horiz-adv-x="634" />
<glyph unicode="&#xa0;" horiz-adv-x="634" />
<glyph unicode="!" horiz-adv-x="755" d="M95 57v28q18 171 86 171q85 -28 85 -171l-28 -114h-57q-41 0 -86 86zM181 399v57q298 1255 370 1255q57 -9 57 -57v-57q0 -233 -313 -1255h-57q-57 0 -57 57z" />
<glyph unicode="%" horiz-adv-x="1342" d="M116 -29q0 203 970 1569l28 114h115v-57q0 -137 -771 -1198q-234 -504 -285 -513q-57 0 -57 57v28zM116 913v114q0 302 342 599h86q85 -175 85 -229v-28q0 -337 -342 -628h-85q-86 29 -86 172zM230 884h57q228 174 228 571l-57 28q-228 -221 -228 -570v-29zM658 142v57 q132 628 428 628q85 -104 85 -200v-57q-128 -627 -427 -627q-86 104 -86 199zM772 114l57 -29q228 206 228 485v57q0 57 -57 57h-28q-200 -291 -200 -570z" />
<glyph unicode="&#x26;" horiz-adv-x="1306" d="M55 542q0 298 342 456l-85 371q48 314 256 314q218 0 257 -286v-28q0 -222 -257 -428q200 -499 200 -542h29q57 198 57 342h114v-57q0 -218 -86 -485q172 -142 200 -142q157 28 228 28l29 -57v-28q0 -86 -229 -114q-119 0 -313 171q-148 -143 -257 -143q-485 70 -485 628 zM226 428q0 -175 200 -314h171q45 0 114 114q-157 278 -257 627h-28q-200 -139 -200 -313v-114zM483 1369l28 -285q172 100 172 256q0 172 -143 172l-57 -86v-57z" />
<glyph unicode="'" horiz-adv-x="728" d="M285 1027q86 313 171 313q57 -9 57 -57v-28q-85 -104 -85 -200v-142h-114z" />
<glyph unicode="+" horiz-adv-x="887" d="M71 542v28q9 57 57 57h200q20 371 114 371h57v-28q-29 -296 -29 -343h172q57 -9 57 -57v-57l-29 -57l-143 29h-85q0 -66 -57 -428h-86l-28 114l28 285h-142q-41 0 -86 86z" />
<glyph unicode="," horiz-adv-x="688" d="M117 -200q86 90 114 371h57q57 -9 57 -57v-57q-43 -314 -142 -314h-29q-57 0 -57 57z" />
<glyph unicode="-" d="M217 570v114q50 29 114 29h200l142 -29v-114h-456z" />
<glyph unicode="." horiz-adv-x="673" d="M184 -29v114q0 41 86 86q57 -9 57 -57v-57q0 -41 -86 -86h-57z" />
<glyph unicode="0" horiz-adv-x="1317" d="M152 741v86q0 696 513 913h143q370 0 399 -457q0 -527 -599 -1198q-95 0 -142 -28q-314 98 -314 684zM295 798q0 -281 114 -570h114q302 255 456 713q29 50 86 342q-29 314 -257 314q-485 -73 -485 -599q-28 -36 -28 -200z" />
<glyph unicode="1" horiz-adv-x="599" d="M127 142l200 1569h114v-28q0 -371 -171 -1598h-114q0 57 -29 57z" />
<glyph unicode="2" horiz-adv-x="994" d="M-13 114q0 209 485 741q285 313 285 571q0 121 -228 200q-176 -33 -314 -171h-57q-57 0 -57 57q183 256 457 256q342 -72 342 -399q0 -274 -742 -1141l143 28q28 0 28 -28l57 28h314q41 0 86 -85q-29 -86 -171 -86v29l-57 -29h-229z" />
<glyph unicode="3" horiz-adv-x="940" d="M-71 171v28l29 57l285 -28q342 71 342 314q0 247 -456 313l-29 58q24 82 428 313l114 171v115q0 57 -57 57h-200q-26 0 -228 -57l-28 57v28q75 143 399 143q285 -57 285 -285q0 -229 -428 -485h-28v-29q314 0 371 -428q0 -327 -485 -428h-86q-210 0 -228 86z" />
<glyph unicode="4" horiz-adv-x="851" d="M151 656q65 1141 171 1141l86 -57q-29 -146 -114 -999h256v86l29 143h85l58 -29l-29 -143v-85q171 0 171 -57t-57 -57h-143q0 -95 -57 -457h-114v286l29 142h-143q-210 0 -228 86z" />
<glyph unicode="5" horiz-adv-x="908" d="M34 171v57h57q119 0 314 -29q257 98 257 286q0 342 -485 342q-29 55 -29 86q0 827 228 827h86q28 0 28 -29q56 29 86 29l257 -29v-85q0 -57 -57 -57h-428q0 -111 -57 -628q513 -47 513 -456v-29q0 -335 -485 -399q-285 22 -285 114z" />
<glyph unicode="6" horiz-adv-x="897" d="M111 456v57q114 511 399 1227h57q57 0 57 -86l-256 -741q104 57 228 57q228 -72 228 -286q-195 -599 -485 -599h-28q-200 96 -200 371zM254 428q0 -74 85 -200q166 0 343 485q-29 55 -29 85h-114q-285 0 -285 -342v-28z" />
<glyph unicode="7" horiz-adv-x="792" d="M17 1654v86q9 57 57 57h371q257 0 257 -143l-400 -1512h-114q0 198 342 1484h-28q-50 28 -114 28h-371z" />
<glyph unicode="8" horiz-adv-x="1059" d="M135 485q0 220 257 485q-171 199 -171 399v57q103 371 370 371h29q342 -49 342 -143v-28q0 -253 -314 -685q105 0 143 -428q-70 -399 -399 -399q-257 83 -257 371zM278 456q0 -171 171 -171h28q171 85 171 257q-36 342 -142 342q-228 -239 -228 -428zM363 1369 q0 -204 171 -314q257 271 257 571q-154 28 -257 28q-171 -138 -171 -285z" />
<glyph unicode="9" horiz-adv-x="961" d="M94 1055q0 656 571 656q49 0 142 -57q-100 -1626 -200 -1626h-28q-57 0 -57 57q57 705 114 1027v29h-29q-126 -314 -370 -314q-114 0 -143 228zM237 1055q28 -55 28 -85q163 0 400 599q-428 0 -428 -514z" />
<glyph unicode=":" horiz-adv-x="507" d="M97 57v142q9 57 57 57q86 0 86 -114q-29 -55 -29 -85h-114zM154 513v143q9 57 57 57q41 0 86 -86v-57q0 -57 -57 -57h-86z" />
<glyph unicode=";" horiz-adv-x="567" d="M69 28q86 271 86 342v58h85q43 0 86 -115q-67 -342 -228 -342zM183 770q29 50 29 114h142l29 -114q-43 -114 -86 -114h-28q-43 0 -86 114z" />
<glyph unicode="=" horiz-adv-x="866" d="M107 428v57l200 28l342 -28v-57q0 -58 -57 -58h-428q-57 0 -57 58zM107 627v57l143 29h28q371 0 371 -86l-29 -57q-203 29 -228 29l-256 -29z" />
<glyph unicode="?" horiz-adv-x="850" d="M34 85q29 171 86 171h28q57 -9 57 -57v-57l-28 -142h-86q-57 0 -57 85zM120 513v29q0 325 599 798q57 94 57 172v28q0 43 -114 86q-156 0 -428 -314h-57v143q202 285 456 285h86q171 -72 171 -228v-57q0 -191 -542 -657q-93 -285 -143 -285h-85z" />
<glyph unicode="A" horiz-adv-x="1020" d="M-31 0q0 185 599 1683h57q107 0 200 -1655l-57 -28h-29q-71 0 -114 770h-200l-57 28q-247 -827 -313 -827h-86v29zM425 941h172v171l-29 143h-28q-50 -207 -115 -314z" />
<glyph unicode="B" horiz-adv-x="1086" d="M78 85q57 736 114 799q0 29 -28 29q46 770 199 770q56 28 86 28q513 -115 513 -399v-86q-57 -399 -285 -399v-57q143 0 200 -371q-100 -428 -428 -428h-200q-171 0 -171 114zM221 114h142q371 0 371 342q-48 181 -257 314h-171zM306 884h143q371 74 371 342v29 q0 228 -314 285h-114q-57 -603 -86 -656z" />
<glyph unicode="C" horiz-adv-x="936" d="M93 798q108 913 685 913h85q41 0 86 -85q0 -49 -400 -114q-313 -299 -313 -771q69 -599 171 -599h142q39 0 229 257h28q57 0 57 -86q-162 -342 -399 -342q-371 0 -371 827z" />
<glyph unicode="D" horiz-adv-x="1110" d="M68 114q178 1505 228 1569l143 28q513 -141 513 -713v-85q0 -694 -713 -942q-132 7 -171 143zM239 142q320 0 542 542q29 202 29 343q0 458 -400 513h-28z" />
<glyph unicode="E" horiz-adv-x="949" d="M81 142q64 742 114 742q0 29 -28 29q77 827 171 827h599q57 -9 57 -57v-86h-599q-57 -440 -57 -656h513q57 -9 57 -57v-29q0 -57 -57 -57h-542q-57 -426 -57 -627h257q314 0 314 -86q0 -41 -86 -85h-399q-257 0 -257 142z" />
<glyph unicode="F" horiz-adv-x="910" d="M76 28q65 827 114 827q0 29 -28 29q65 827 171 827h599q57 -9 57 -57v-28q0 -57 -57 -57h-542q-29 -53 -29 -628q86 0 86 -28l142 28h115l199 -28v-86q0 -57 -57 -57h-542q-64 -770 -142 -770h-29z" />
<glyph unicode="G" horiz-adv-x="1164" d="M113 741v143q0 592 485 856l200 28q285 -42 285 -114v-28q0 -57 -57 -57q-53 0 -228 57q-460 0 -542 -771v-85q22 -530 199 -599h29q294 0 399 684l57 29l57 -29l-85 -798h-114l28 142v29h-28q0 -163 -314 -200q-371 0 -371 713z" />
<glyph unicode="H" horiz-adv-x="1135" d="M84 57q143 1683 228 1683h86v-29q-57 -611 -57 -741h456q65 770 143 770q85 -29 85 -57q-64 -770 -114 -770l29 -58q-78 -827 -143 -827h-28q-57 0 -57 57q28 530 85 713q-55 29 -85 29q-56 -29 -86 -29v29q-55 -29 -86 -29l-57 29q-199 0 -199 -200q-17 -599 -114 -599 h-29z" />
<glyph unicode="I" horiz-adv-x="520" d="M75 57q143 1367 200 1654h114v-28q-122 -1683 -228 -1683z" />
<glyph unicode="J" horiz-adv-x="672" d="M-132 85v86q253 -29 314 -29q78 64 257 1541l57 28h28q57 -9 57 -57q-179 -1626 -314 -1626q-114 -57 -199 -57q-200 68 -200 114z" />
<glyph unicode="K" horiz-adv-x="917" d="M70 28q29 372 143 999l-29 57q34 599 114 599h29q57 -9 57 -57q0 -218 -57 -571q502 628 542 628h85v-86l-627 -770q0 -49 399 -770v-57q0 -57 -57 -57h-28q-50 0 -343 627h-28q-35 -599 -114 -599h-29q-57 0 -57 57z" />
<glyph unicode="L" horiz-adv-x="829" d="M82 28q0 156 171 1655h143q0 -124 -171 -1569h542q57 -9 57 -57v-29q0 -57 -57 -57h-400q-285 0 -285 57z" />
<glyph unicode="M" horiz-adv-x="1502" d="M87 57l171 1654h114v-57q286 -1219 286 -1369h28q285 775 571 1426h85q-28 -356 -28 -399q0 -30 28 -86q-85 -889 -142 -1226h-58q-57 0 -57 57l86 1027v28h-29q-142 -450 -427 -1084h-86q-104 0 -257 1056h-28q-96 -1084 -171 -1084h-29q-57 0 -57 57z" />
<glyph unicode="N" horiz-adv-x="1249" d="M88 57q114 1404 171 1540v114h57q107 -35 514 -1283h57l85 1255l86 57l85 -86q-114 -1226 -199 -1626h-86q-171 335 -485 1284h-28q-68 -1284 -171 -1284h-29z" />
<glyph unicode="O" horiz-adv-x="1299" d="M110 656v199q0 626 513 856q87 0 200 29q328 0 400 -457q-66 -541 -485 -1141q-195 -171 -314 -171q-314 91 -314 685zM253 713q0 -446 171 -599q239 0 570 827q57 198 57 342v29q0 285 -228 285q-570 0 -570 -884z" />
<glyph unicode="P" horiz-adv-x="970" d="M80 28q129 1655 228 1655l143 28q513 -59 513 -456v-29q0 -391 -570 -485h-114q0 -299 -86 -770h-57q-57 0 -57 57zM308 884h57q457 0 457 428q0 171 -343 257q-128 0 -171 -685z" />
<glyph unicode="Q" horiz-adv-x="1307" d="M100 770q0 862 685 998h85q304 0 343 -399v-29q0 -605 -514 -1198l86 -114v-57h-29l-143 86l-171 -29h-57q-187 0 -285 742zM271 713q17 -487 171 -542h57l-85 142h57l85 -57h29q485 502 485 1141q-29 229 -228 229q-571 0 -571 -799v-114z" />
<glyph unicode="R" horiz-adv-x="1089" d="M70 28q171 1620 228 1683l57 29h200q428 -85 428 -428v-29q0 -351 -514 -485v-28q485 -629 485 -742l-57 -28h-28l-571 741q-50 -741 -142 -741h-29zM327 941h28q485 0 485 428q-114 228 -314 228h-114q-57 -240 -85 -656z" />
<glyph unicode="S" horiz-adv-x="959" d="M38 228v57q9 57 57 57q197 -200 314 -200q114 0 228 171v143q0 160 -428 571q-85 235 -85 342q93 371 370 371q326 0 400 -314h-114q-128 143 -286 171q-155 0 -228 -257q0 -215 457 -656l85 -256q-109 -428 -371 -428h-57q-181 0 -342 228z" />
<glyph unicode="T" horiz-adv-x="773" d="M20 1597v86q9 57 57 57h143q117 0 228 -29q110 29 228 29h57q171 -18 171 -86q0 -41 -85 -85h-314v-29q-107 -1540 -200 -1540h-28q-57 0 -57 57q114 1310 171 1512q-232 0 -371 28z" />
<glyph unicode="U" horiz-adv-x="1129" d="M111 228q0 253 143 1483h57l85 -57q-28 -144 -142 -1426q28 -55 28 -86h29q513 477 513 1113q19 456 114 456q29 0 86 -114q-57 -636 -143 -913l29 -142q-39 -542 -114 -542h-29q-57 0 -57 57q0 17 29 371q-279 -428 -457 -428h-57q-74 0 -114 228z" />
<glyph unicode="V" horiz-adv-x="982" d="M140 1683l57 28h29q103 0 171 -1312h28q0 57 457 1341h57q57 0 57 -86q-466 -1467 -628 -1626q-106 0 -228 1655z" />
<glyph unicode="W" horiz-adv-x="1706" d="M143 1683l57 28h29q79 0 171 -1312h28q286 920 457 1284h114q57 -280 142 -1284h29l428 1284h114v-57q-492 -1626 -599 -1626h-29q-91 0 -171 1340h-28q0 -106 -485 -1340h-86v171q-79 0 -171 1512z" />
<glyph unicode="X" horiz-adv-x="1018" d="M-12 0q0 146 456 855q-67 0 -285 828l57 28h29q49 0 256 -656h29q322 652 371 656h57q57 -9 57 -57q-354 -668 -456 -799v-57q65 -81 256 -741v-29q0 -57 -57 -57h-57q-157 537 -257 656q-244 -534 -370 -656h-86v29z" />
<glyph unicode="Y" horiz-adv-x="916" d="M-30 0l456 798q0 59 -285 828l86 57q85 0 285 -685q415 685 456 685q57 -9 57 -57v-57l-798 -1398q0 -114 -171 -257q-41 0 -86 86z" />
<glyph unicode="Z" horiz-adv-x="863" d="M1 0q0 164 713 1540h-570q-57 0 -57 57v29q8 57 57 57h542q171 -18 171 -86v-28q0 -65 -571 -1227q-114 -183 -114 -257h542q57 -9 57 -57v-28q0 -57 -57 -57h-513l-200 28v29z" />
<glyph unicode="^" horiz-adv-x="6530" d="M60 542v85q44 314 143 314q57 -9 57 -57q-86 -207 -86 -342q64 -257 143 -257h57q181 58 228 998q-111 -57 -314 -57v114q314 86 542 86q114 -43 114 -86v-28q-228 0 -228 -171q0 -970 -399 -970q-210 0 -257 371zM859 228v257q0 56 57 285h57l57 -29q-57 -198 -57 -342 v-171q0 -57 -57 -57t-57 57zM944 941v114q9 57 57 57h29q57 -9 57 -57v-57q0 -57 -57 -57h-86zM1087 285q39 467 143 485h28v-143l114 86h86v-86l142 114h86v-28q-86 -254 -86 -285v-86l86 -114v-57h-57q-143 78 -143 285h-28q-63 -257 -114 -257q-57 0 -57 257h-29 q-22 -285 -85 -285h-58q0 64 -28 114zM1772 228v142q28 400 114 400q57 0 57 -86q-29 -55 -29 -85q100 114 200 114l28 -57q-28 0 -28 -29h28q0 45 115 114h57q57 -9 57 -57q-114 -216 -114 -285q0 -39 114 -200v-28h-57q-172 99 -172 285q29 0 29 29h-29q-85 -200 -85 -286 h-29q-42 0 -85 114l28 143v29h-28q-57 -203 -57 -314h-57q-57 0 -57 57zM2399 -143q0 143 314 399v114h-29q0 -83 -114 -142h-57q-41 0 -85 85v86q0 224 142 342h29q57 -9 57 -57q-114 -199 -114 -285v-29h28q84 43 229 400h85v-29q0 -245 -57 -399h29q85 104 85 200h86 q0 -191 -200 -371q0 -542 -257 -542q-171 59 -171 228zM2513 -200l57 -29h57q57 186 57 257v57q-171 -116 -171 -285zM3597 1169v29q148 199 314 199q357 0 428 -456v-86q-114 -770 -513 -770q-200 0 -200 257l85 799l-57 -29q-57 0 -57 57zM3768 228l58 -29h28 q342 216 342 656q29 0 29 58q0 342 -228 342h-143v-29q0 -28 29 -28q-115 -501 -115 -970zM4368 485q57 313 285 313l57 -85v-57q-51 -257 -200 -257v-57l114 -29q171 67 171 200h86v-85q-123 -229 -314 -229q-199 74 -199 286zM4510 485q114 57 114 171h-28q-41 0 -86 -86 v-85zM4910 456q57 371 256 371q143 0 143 -314l-29 -57q35 -200 143 -200v-85h-86q-114 59 -114 142h-28q0 -114 -86 -114h-57q-72 0 -142 257zM5024 456q36 -143 85 -143q57 115 86 371h-57q-57 0 -114 -228zM5395 770v85q134 0 228 286h28q57 -9 57 -57v-143l57 29 q56 -29 86 -29v-86q-257 0 -257 -199v-286q9 -57 57 -57q111 229 143 229h28v-86q0 -222 -199 -257q-171 49 -171 343l28 199q-55 29 -85 29zM5908 285q0 392 143 1027h57q57 -9 57 -57q-114 -499 -114 -599q126 114 142 114h57q57 -9 57 -57q-57 -186 -57 -257v-114 q57 0 114 200h86v-29q0 -143 -143 -285h-85q-41 0 -86 85v229l29 57h-29q-114 -196 -114 -343v-57h-57q-57 0 -57 86z" />
<glyph unicode="`" horiz-adv-x="601" d="M60 1363q0 31 20.5 51t53.5 20q20 0 40.5 -12t55.5 -47l291 -296h-69l-330 202q-31 20 -46.5 40t-15.5 42z" />
<glyph unicode="a" horiz-adv-x="1098" d="M95 256q0 710 456 828h286l85 -57l-85 -599q0 -29 28 -29q-47 -485 -142 -485h-29l-57 29l57 342v28h-28q-168 -399 -371 -399q-171 0 -200 342zM238 199q28 -50 28 -114q203 0 400 542q85 103 85 286v28h-143q-370 0 -370 -742z" />
<glyph unicode="b" horiz-adv-x="1081" d="M107 -57q191 2253 285 2253h29q57 -9 57 -57q-143 -1299 -143 -1398v-28h29q136 342 342 342h86q50 0 142 -200q0 -723 -399 -941h-86q-46 0 -342 29zM250 142q28 -55 28 -85h114q371 0 371 770v86h-85q-105 -19 -428 -771z" />
<glyph unicode="c" horiz-adv-x="791" d="M99 456q72 628 428 628h114q57 -9 57 -57v-57q-456 0 -456 -571q42 -314 114 -314h57l171 171h57v-57q-57 -285 -285 -285q-257 86 -257 542z" />
<glyph unicode="d" horiz-adv-x="1027" d="M8 142q70 885 485 885h200l142 1112h57q57 0 57 -85q-75 -1113 -142 -1113l28 -57q-85 -998 -171 -998h-28q-57 0 -57 57q28 156 28 228v57h-28q-131 -342 -343 -342q0 -29 -28 -29q-127 0 -200 285zM179 28h86q347 381 428 856h-229q-285 -149 -285 -571v-285z" />
<glyph unicode="e" horiz-adv-x="809" d="M88 256q76 828 399 828h29q44 0 114 -114v-143q0 -265 -371 -457v-228q9 -57 57 -57h29q14 0 171 200h85v-29q-65 -313 -285 -313q-228 0 -228 313zM288 542q76 32 199 256v143h-28q-105 0 -171 -399z" />
<glyph unicode="f" horiz-adv-x="883" d="M-22 884q0 41 86 86h256q60 941 428 941q343 -45 343 -143v-57q0 -57 -58 -57q-79 73 -256 114q-246 0 -314 -798q342 0 342 -86q0 -41 -85 -86h-257q-123 -941 -200 -941l-85 57q114 757 114 884h-143q-148 0 -171 86z" />
<glyph unicode="g" horiz-adv-x="1067" d="M-7 -742q9 57 57 57h29q121 -86 228 -86q288 0 342 913q0 36 29 286v28h-29q0 -148 -285 -342h-143q-142 71 -142 285q0 672 542 770q285 -22 285 -85q-191 -1940 -371 -1940q-104 -57 -228 -57q-314 43 -314 142v29zM221 399q29 -47 29 -143h57q114 0 371 514 q85 203 85 228q-64 0 -114 29q-428 -72 -428 -628z" />
<glyph unicode="h" horiz-adv-x="1034" d="M68 -114q171 1448 257 1939h114q0 -57 28 -57q-28 -122 -171 -1198q218 285 371 285h86q114 -58 114 -142q-49 -885 -171 -885q-57 0 -57 58l85 827h-85q-428 -358 -428 -827l-57 -29h-29z" />
<glyph unicode="i" horiz-adv-x="543" d="M105 -29l114 1056h86q57 -9 57 -57q0 -77 -114 -1056h-86q-57 0 -57 57zM248 1283v86h85q57 -9 57 -57q-28 -55 -28 -86h-57q-57 0 -57 57z" />
<glyph unicode="j" horiz-adv-x="629" d="M-429 -685q9 57 57 57q104 -86 200 -86h57q257 0 257 514q34 0 171 1284l85 57q57 0 57 -86q-153 -1911 -428 -1911l-199 -29q-257 64 -257 143v57zM341 1397l57 29h29q57 -9 57 -57v-29q0 -57 -57 -57h-57z" />
<glyph unicode="k" horiz-adv-x="955" d="M77 85q228 1715 285 1854h29q55 -28 85 -28q-142 -1031 -142 -1141q210 228 371 228q130 -55 142 -114v-86q0 -271 -456 -370v-29q249 -285 371 -285v-114h-143q-17 0 -342 285h-29q0 -257 -85 -257h-29q-57 0 -57 57zM334 570h57q314 57 314 285h-29q-45 0 -342 -285z " />
<glyph unicode="l" horiz-adv-x="544" d="M90 -29q200 1797 285 1797h29q57 -9 57 -57q-208 -1797 -285 -1797h-29q-57 0 -57 57z" />
<glyph unicode="m" horiz-adv-x="1663" d="M122 85l114 1056h114v-314h29q135 314 342 314q200 0 200 -286h28q149 286 343 286q171 0 171 -200q-49 -941 -143 -941q-41 0 -85 85q85 737 85 913h-57q-456 -455 -456 -998h-143q86 798 114 798l-28 57q28 50 28 115l-57 28q-131 0 -428 -570q-19 -428 -114 -428 q-57 0 -57 85z" />
<glyph unicode="n" horiz-adv-x="1110" d="M119 28q86 856 86 1027l57 29h57l57 -29l-29 -142v-143h29q0 96 256 314h172q58 -13 114 -143q-57 -998 -143 -998h-28q-57 0 -57 57q28 409 85 913l-57 28h-28q-428 -377 -428 -884q0 -114 -57 -114h-29q-57 0 -57 85z" />
<glyph unicode="o" horiz-adv-x="1033" d="M120 399v171q44 599 428 599h85q257 -37 257 -256v-58q-153 -855 -513 -855q-211 0 -257 399zM263 513q20 -371 114 -371h28q343 305 343 742v57q0 41 -86 86h-86q-313 0 -313 -485v-29z" />
<glyph unicode="p" horiz-adv-x="1068" d="M12 -885q114 1141 200 1569q0 29 -29 29l57 399h86q57 -9 57 -57q-29 -157 -29 -228q217 314 371 314h57q39 0 143 -143v-257q0 -508 -428 -656h-228q-76 -998 -171 -998h-29zM269 228h142q344 0 371 570v143q0 57 -57 57h-28q-362 -409 -428 -770z" />
<glyph unicode="q" horiz-adv-x="1051" d="M71 370v115q49 684 456 684h57l286 -28q-143 -1446 -200 -1683q29 -50 29 -114h28l143 114h57v-57q-126 -229 -285 -229h-29l-86 257q57 340 115 1027q-241 -314 -400 -314q-171 59 -171 228zM214 313h142q343 471 343 714h-143q-342 0 -342 -542v-172z" />
<glyph unicode="r" horiz-adv-x="878" d="M111 -29q8 428 57 428q0 29 -28 29q85 473 85 627h57q57 0 57 -314q227 295 314 314h114q45 0 114 -114v-28q0 -58 -57 -58h-28l-86 58q-99 0 -399 -514q-67 -485 -114 -485h-29q-57 0 -57 57z" />
<glyph unicode="s" horiz-adv-x="806" d="M77 142v86h86l199 -114q114 28 114 171q0 49 -313 371q-29 113 -29 199q37 257 257 257q257 -57 257 -142v-86h-86q-104 86 -200 86q-85 -29 -85 -172q0 -67 313 -399l29 -171q0 -228 -285 -257q-221 71 -257 171z" />
<glyph unicode="t" horiz-adv-x="801" d="M-5 827v86q9 57 57 57h257l114 855h143q-58 -454 -86 -855h143l142 -29v-114l-114 -29v29l-57 -29h-143q-105 -884 -171 -884h-28q-57 0 -57 57l85 856h-285z" />
<glyph unicode="u" horiz-adv-x="1125" d="M127 285q86 844 143 884h28q57 0 57 -85q-57 -692 -57 -828q29 -55 29 -85q125 0 456 627q0 371 86 371l85 -57q-114 -996 -142 -1084h-57q-57 0 -57 314h-29q-27 -152 -285 -314h-29q-195 0 -228 257z" />
<glyph unicode="v" horiz-adv-x="1101" d="M127 228q66 913 143 913h28q57 -9 57 -57q-28 -492 -85 -799q28 -50 28 -114h29q155 0 599 998h28q41 0 86 -85q-193 -626 -656 -1056h-114q-69 17 -143 200z" />
<glyph unicode="w" horiz-adv-x="1736" d="M122 228q69 913 143 913h28q57 0 57 -86l-85 -827q28 -55 28 -86q190 0 599 999h86v-29q-57 -824 -57 -941q28 0 28 -29q208 52 542 856q21 143 86 143h28q57 -9 57 -57q-303 -909 -656 -1084h-57q-171 0 -171 456v57h-28q-31 -216 -400 -513h-85q-143 73 -143 228z" />
<glyph unicode="x" horiz-adv-x="969" d="M44 28v29l342 542q-228 376 -228 485q9 57 57 57h29q57 0 199 -371h29q137 108 257 371h57q57 -9 57 -57v-57q-271 -428 -314 -428q257 -485 257 -571q0 -57 -57 -57h-29q-57 0 -228 457q-306 -457 -342 -457h-29q-57 0 -57 57z" />
<glyph unicode="y" horiz-adv-x="1090" d="M21 -742q9 57 57 57q143 -86 228 -86q314 0 314 714q21 36 57 399q-242 -257 -285 -257h-171q-75 0 -114 200q57 770 142 770h86v-28q0 -117 -86 -771q55 -28 86 -28q456 330 456 827h114q-162 -1911 -371 -1911q-104 -57 -228 -57q-285 35 -285 114v57z" />
<glyph unicode="z" horiz-adv-x="955" d="M-10 0q413 612 713 970h-542q-57 0 -57 57v28q9 57 57 57h400q342 -6 342 -57q-105 -206 -685 -970h457l142 -28v-57q0 -57 -57 -57h-627l-143 28v29z" />
<glyph unicode="~" horiz-adv-x="1024" d="M60 513q0 228 228 228q80 0 400 -114h85q86 0 86 114h85v-85q-38 -94 -228 -171q-358 142 -399 142q-100 0 -200 -114h-57z" />
<glyph unicode="&#xa8;" horiz-adv-x="721" d="M60 1263q0 13 14 26l71 72q13 12 25 12q11 0 27 -14l69 -73q10 -14 10 -25q0 -13 -12 -27l-69 -75q-17 -17 -25 -17q-14 0 -25 12l-76 86q-9 12 -9 23zM425 1263q0 13 14 26l71 72q13 12 25 12q11 0 27 -13l69 -74q10 -14 10 -25q0 -13 -12 -26l-69 -76q-17 -17 -25 -17 q-14 0 -25 12l-76 87q-9 11 -9 22z" />
<glyph unicode="&#xad;" d="M217 570v114q50 29 114 29h200l142 -29v-114h-456z" />
<glyph unicode="&#xb4;" horiz-adv-x="601" d="M60 1078l291 297q35 35 55.5 47t40.5 12q33 0 53.5 -20t20.5 -51q0 -22 -15.5 -42t-46.5 -40l-330 -203h-69z" />
<glyph unicode="&#xb8;" horiz-adv-x="548" d="M60 -290q85 -52 152 -52q66 0 94.5 21.5t28.5 66.5t-49 64q-40 16 -102 16q-16 0 -34 -2l48 176h63l-37 -104q32 4 62 5q86 0 134 -40.5t48 -113.5q0 -76 -58.5 -120.5t-160.5 -44.5q-109 0 -189 32v96z" />
<glyph unicode="&#x2c6;" horiz-adv-x="722" d="M60 1079l232 355h118l232 -355h-58l-233 216l-233 -216h-58z" />
<glyph unicode="&#x2dc;" horiz-adv-x="714" d="M60 1132q19 106 68 158.5t129 52.5q46 -1 113 -24q64 -23 112 -23h4q36 0 58 20t36 66h54q-20 -103 -68.5 -154t-126.5 -51h-4q-50 0 -113 23q-66 24 -114 24q-39 0 -60.5 -20.5t-33.5 -71.5h-54z" />
<glyph unicode="&#x2000;" horiz-adv-x="1098" />
<glyph unicode="&#x2001;" horiz-adv-x="2196" />
<glyph unicode="&#x2002;" horiz-adv-x="1098" />
<glyph unicode="&#x2003;" horiz-adv-x="2196" />
<glyph unicode="&#x2004;" horiz-adv-x="732" />
<glyph unicode="&#x2005;" horiz-adv-x="549" />
<glyph unicode="&#x2006;" horiz-adv-x="366" />
<glyph unicode="&#x2007;" horiz-adv-x="366" />
<glyph unicode="&#x2008;" horiz-adv-x="274" />
<glyph unicode="&#x2009;" horiz-adv-x="439" />
<glyph unicode="&#x200a;" horiz-adv-x="122" />
<glyph unicode="&#x2010;" d="M217 570v114q50 29 114 29h200l142 -29v-114h-456z" />
<glyph unicode="&#x2011;" d="M217 570v114q50 29 114 29h200l142 -29v-114h-456z" />
<glyph unicode="&#x2012;" d="M217 570v114q50 29 114 29h200l142 -29v-114h-456z" />
<glyph unicode="&#x2013;" horiz-adv-x="1560" d="M217 570v114q112 29 256 29h449l319 -29v-114h-1024z" />
<glyph unicode="&#x2014;" horiz-adv-x="2584" d="M217 570v114q225 29 512 29h898l638 -29v-114h-2048z" />
<glyph unicode="&#x2018;" horiz-adv-x="368" d="M60 1455v57q43 314 142 314h29q57 0 57 -57q-86 -90 -114 -371h-57q-57 9 -57 57z" />
<glyph unicode="&#x2019;" horiz-adv-x="368" d="M60 1455q86 90 114 371h57q57 -9 57 -57v-57q-43 -314 -142 -314h-29q-57 0 -57 57z" />
<glyph unicode="&#x201c;" horiz-adv-x="687" d="M60 1455v57q43 314 142 314h29q57 0 57 -57q-86 -90 -114 -371h-57q-57 9 -57 57zM379 1455v57q43 314 142 314h29q57 0 57 -57q-86 -90 -114 -371h-57q-57 9 -57 57z" />
<glyph unicode="&#x201d;" horiz-adv-x="687" d="M60 1455q86 90 114 371h57q57 -9 57 -57v-57q-43 -314 -142 -314h-29q-57 0 -57 57zM379 1455q86 90 114 371h57q57 -9 57 -57v-57q-43 -314 -142 -314h-29q-57 0 -57 57z" />
<glyph unicode="&#x2026;" horiz-adv-x="957" d="M60 20l57 99q18 31 98 31h19q29 -23 29 -50q0 -13 -8 -28l-29 -49q-18 -31 -98 -31h-19zM367 20l57 99q18 31 98 31h19q29 -23 29 -50q0 -13 -8 -28l-29 -49q-18 -31 -98 -31h-19zM674 20l57 99q18 31 98 31h19q29 -23 29 -50q0 -13 -8 -28l-28 -49q-19 -31 -99 -31h-19z " />
<glyph unicode="&#x202f;" horiz-adv-x="439" />
<glyph unicode="&#x205f;" horiz-adv-x="549" />
<glyph unicode="&#xe000;" horiz-adv-x="1140" d="M0 0v1140h1140v-1140h-1140z" />
</font>
</defs>
</svg>
